<?xml version="1.0" encoding="UTF-8" standalone="no"?>
<!-- Meme by Ralf Schmitzer from NounProject.com -->

<svg
   width="250pt"
   height="250pt"
   version="1.1"
   viewBox="150 150 537.5 537.5"
   id="svg1039"
   sodipodi:docname="icon-black-background.svg"
   inkscape:export-filename="/Users/yaleman/Projects/memes-api/memes_api/images/memes-head-512px.png"
   inkscape:export-xdpi="184.32001"
   inkscape:export-ydpi="184.32001"
   inkscape:version="1.1.2 (b8e25be8, 2022-02-05)"
   xmlns:inkscape="http://www.inkscape.org/namespaces/inkscape"
   xmlns:sodipodi="http://sodipodi.sourceforge.net/DTD/sodipodi-0.dtd"
   xmlns="http://www.w3.org/2000/svg"
   xmlns:svg="http://www.w3.org/2000/svg">
  <defs
     id="defs1043" />
  <sodipodi:namedview
     id="namedview1041"
     pagecolor="#ffffff"
     bordercolor="#666666"
     borderopacity="1.0"
     inkscape:pageshadow="2"
     inkscape:pageopacity="1"
     inkscape:pagecheckerboard="0"
     inkscape:document-units="pt"
     showgrid="false"
     inkscape:zoom="0.85831509"
     inkscape:cx="113.01211"
     inkscape:cy="261.55896"
     inkscape:window-width="1394"
     inkscape:window-height="847"
     inkscape:window-x="46"
     inkscape:window-y="25"
     inkscape:window-maximized="1"
     inkscape:current-layer="svg1039"
     showguides="true"
     inkscape:guide-bbox="true">
    <sodipodi:guide
       position="-73.268545,266.96997"
       orientation="0,-1"
       id="guide16469" />
    <sodipodi:guide
       position="268.65133,483.01824"
       orientation="1,0"
       id="guide16471" />
  </sodipodi:namedview>
  <rect
     style="fill:#000000;stroke-width:0.393617;stroke-dasharray:0.393617, 0.787233;paint-order:fill markers stroke"
     id="rect1167"
     width="537.5"
     height="537.5"
     x="150"
     y="150" />
  <g
     fill="#ff59b9"
     id="g1037"
     transform="matrix(1.0822714,0,0,1.0721279,-4.3003335,25.34367)">
    <path
       d="m 532.49,309.4 c 0,-65.281 -63.066,-118.39 -140.59,-118.39 -77.527,0 -140.59,53.113 -140.59,118.39 0,7.332 0.80469,14.688 2.375,21.785 0.33203,3.8789 -9.9141,16.184 -15.43,22.793 -12.602,15.117 -24.508,29.406 -15.91,40.438 3.2266,4.1523 8.3672,4.3008 12.5,4.4258 7.1328,0.19922 10.352,0.59375 12.047,7.5703 1.9023,7.8594 0.61328,18.055 -0.63672,27.918 -2.0586,16.25 -4.1875,33.062 7.8203,42.703 9.5,7.6367 21.711,8.5156 30.066,8.5156 5.2383,0 10.418,-0.41406 14.992,-0.76953 3.6562,-0.28906 7.043,-0.57031 9.9453,-0.57031 2.9766,0 4.0391,0.32422 4.293,0.42969 2.0859,0.80469 2.7383,2.0664 1.2734,12.082 -1.2969,8.9258 -3.4688,23.863 11.766,29.578 11.543,4.3281 42.891,5.8672 68.379,5.8672 h 0.008 c 51.746,0 81.109,-4.7656 87.234,-14.156 1.9766,-3.0117 2.2734,-6.6367 0.8125,-9.9453 -29.719,-67.633 9.6211,-114.82 17.805,-123.58 12.801,-13.723 31.848,-45.039 31.848,-75.082 z m -64.637,201.23 c -7.8008,3.1094 -32.699,6.7344 -73.066,6.7344 h -0.008 c -32.855,0 -56.66,-2.4805 -63.188,-4.9297 -3.25,-1.2227 -3.8633,-2.9453 -2.3086,-13.586 1.2266,-8.457 3.293,-22.613 -10.551,-28 -2.5078,-0.97656 -5.5781,-1.4336 -9.6641,-1.4336 -3.2422,0 -7.0312,0.29688 -11.113,0.61328 -4.5078,0.36328 -9.168,0.73438 -13.824,0.73438 -9.7227,0 -16.34,-1.6719 -20.801,-5.2539 -5.5508,-4.4688 -4.0273,-16.531 -2.4062,-29.309 1.4141,-11.195 2.8867,-22.762 0.33203,-33.262 -4.4258,-18.254 -18.996,-18.676 -25.996,-18.891 -0.17188,0 -0.35547,-0.008 -0.53906,-0.0156 1.9453,-5.0469 10.176,-14.918 14.887,-20.57 11.172,-13.41 20.824,-24.988 18.52,-35.398 -1.3555,-6.1211 -2.043,-12.395 -2.043,-18.656 0,-57.125 56.43,-103.6 125.8,-103.6 69.363,0 125.8,46.469 125.8,103.6 0,22.812 -14.355,50.504 -27.875,64.984 -26.383,28.277 -45.668,78.676 -21.949,136.24 z"
       id="path1017" />
    <path
       d="m 390.8,279.8 c -20.402,0 -37,16.598 -37,37 0,20.402 16.598,37 37,37 20.402,0 37,-16.598 37,-37 0,-20.402 -16.598,-37 -37,-37 z m 0,59.199 c -12.238,0 -22.199,-9.9609 -22.199,-22.199 0,-12.238 9.9609,-22.199 22.199,-22.199 12.2381,0 22.199,9.9609 22.199,22.199 0,12.238 -9.9609,22.199 -22.199,22.199 z"
       id="path1019" />
    <path
       d="m 390.8,265.01 c 4.0938,0 7.3984,-3.3164 7.3984,-7.3984 v -14.801 c 0,-4.0859 -3.3086,-7.3984 -7.3984,-7.3984 -4.0938,0 -7.3984,3.3164 -7.3984,7.3984 v 14.801 c 0,4.082 3.3047,7.3984 7.3984,7.3984 z"
       id="path1021" />
    <path
       d="m 390.8,368.6 c -4.0938,0 -7.3984,3.3164 -7.3984,7.3984 v 14.801 c 0,4.0938 3.3086,7.3984 7.3984,7.3984 4.0938,0 7.3984,-3.3086 7.3984,-7.3984 v -14.801 c 0,-4.082 -3.3047,-7.3984 -7.3984,-7.3984 z"
       id="path1023" />
    <path
       d="m 464.8,309.4 h -14.793 c -4.0938,0 -7.3984,3.3164 -7.3984,7.3984 0,4.0859 3.3086,7.3984 7.3984,7.3984 l 14.793,0.004 c 4.0938,0 7.3984,-3.3164 7.3984,-7.3984 0.004,-4.0859 -3.3047,-7.4023 -7.3984,-7.4023 z"
       id="path1025" />
    <path
       d="m 339,316.8 c 0,-4.0859 -3.3164,-7.3984 -7.3984,-7.3984 h -14.801 c -4.0859,0 -7.3984,3.3164 -7.3984,7.3984 0,4.0859 3.3164,7.3984 7.3984,7.3984 h 14.801 c 4.082,0 7.3984,-3.3164 7.3984,-7.3984 z"
       id="path1027" />
    <path
       d="m 432.14,282.88 c 1.8945,0 3.7891,-0.72656 5.2305,-2.168 l 10.465,-10.469 c 2.8945,-2.8945 2.8945,-7.5781 0,-10.465 -2.8945,-2.8945 -7.5703,-2.8945 -10.465,0 l -10.465,10.469 c -2.8945,2.8945 -2.8945,7.5781 0,10.465 1.4453,1.4453 3.3398,2.168 5.2344,2.168 z"
       id="path1029" />
    <path
       d="m 343.18,353.96 -10.465,10.465 c -2.8945,2.8945 -2.8945,7.5703 0,10.465 1.4414,1.4414 3.3359,2.168 5.2305,2.168 1.8945,0 3.7891,-0.72656 5.2305,-2.168 l 10.465,-10.465 c 2.8945,-2.8945 2.8945,-7.5703 0,-10.465 -2.8906,-2.8945 -7.5664,-2.8867 -10.461,0 z"
       id="path1031" />
    <path
       d="m 437.37,353.96 c -2.8945,-2.8945 -7.5703,-2.8945 -10.465,0 -2.8945,2.8945 -2.8945,7.5703 0,10.465 l 10.465,10.465 c 1.4414,1.4414 3.3359,2.168 5.2305,2.168 1.8945,0 3.7891,-0.72656 5.2305,-2.168 2.8945,-2.8945 2.8945,-7.5703 0,-10.465 z"
       id="path1033" />
    <path
       d="m 343.18,280.71 c 1.4414,1.4414 3.3359,2.168 5.2305,2.168 1.8946,0 3.7891,-0.72656 5.2305,-2.168 2.8945,-2.8867 2.8945,-7.5703 0,-10.465 l -10.465,-10.469 c -2.8945,-2.8945 -7.5703,-2.8945 -10.465,0 -2.8945,2.8867 -2.8945,7.5703 0,10.465 z"
       id="path1035" />
  </g>
</svg>
